#!OML:ASF F:\VICON\USERDATA\INSTALL\rory3\rory3.ASF
:FULLY-SPECIFIED
:DEGREES
53
root 0.46801683498384344 17.81319536869747 17.68192901170511 -3.3005618827961833 -1.192766613239412 -5.5979359888929086
lfemur -16.85459088684659 -0.5966450044583822 -14.846172534183996
ltibia 58.00305446730896
lfoot -9.544355318010158 -3.4973070986974846
ltoes -1.2378207671398336
rfemur -3.903774004179544 4.93862412838033 28.795266614644042
rtibia 32.162594713920775
rfoot -8.69964466830171 -7.405719255933896
rtoes 7.094085246729131
lowerback 10.644448505184497 1.4968276159143439 4.179599494969525
upperback 0.46646056958805837 2.7462853660635753 2.0444379764709444
thorax -5.463268028614586 1.3095506449074559 -0.8451624397855626
lowerneck -16.04038218209808 -3.0265762213844716 -1.4127538239097144
upperneck 22.436710033109687 -3.8198964065924716 -0.43315224587559154
head 9.870975486656448 -1.9168196046409538 -0.44763799893616074
lclavicle -2.702606454400786e-15 -2.3230481476989934e-15
lhumerus -26.645215356241035 -0.8160424059460034 82.12035574866991
lradius 22.82440260910497
lwrist 6.667754899157625
lhand -26.910325637106354 22.998856955408588
lfingers 7.125020000000001
lthumb 0.11265224502490545 53.51525911894572
rclavicle -2.702606454404841e-15 -2.323048147701294e-15
rhumerus -33.58591811439477 -27.42712871395639 -74.0073916873941
rradius 27.844179197509764
rwrist 7.324091864800473
rhand -17.777060030921607 22.03390726649644
rfingers 7.125020000000001
rthumb 8.752835750225548 -7.664230587750961
54
root 0.46937726028415677 17.809909271495627 17.74891017497263 -3.527100120919336 -1.275027079609628 -5.294181540317634
lfemur -17.22942086940092 -0.6692997322092926 -15.366133914416505
ltibia 56.621525231704766
lfoot -9.627718926971685 -3.6513297205633357
ltoes -4.635806510553509
rfemur -3.917531872685325 4.839768736217475 28.251690204823465
rtibia 32.8310684739868
rfoot -8.571981585514557 -7.494441889889654
rtoes 7.485956440442594
lowerback 10.634703970599249 1.5647023441596744 3.9145873314345954
upperback 0.501117204699493 2.759509703398601 1.9523591083846452
thorax -5.3883194938754535 1.322512046265736 -0.8493410972266024
lowerneck -16.052639791413238 -3.079436950703132 -1.4091909704039585
upperneck 22.535084749157757 -3.915517742007628 -0.41634216134342067
head 9.941779647383708 -1.9494235524512082 -0.4702936864738619
lclavicle -2.7026064543970813e-15 -2.323048147696603e-15
lhumerus -27.416223842601436 0.3077396107710184 82.22091017124104
lradius 21.749369954730316
lwrist 6.550974598600527
lhand -27.249789099486478 22.945971752843388
lfingers 7.125020000000001
lthumb -0.19319210288575794 53.42098671316497
rclavicle -2.7026064544107456e-15 -2.3230481477056254e-15
rhumerus -33.610680552050844 -27.517725633914395 -73.3957468359974
rradius 27.49322767252601
rwrist 6.22202789729743
rhand -17.87300891450476 21.91006549162105
rfingers 7.125020000000001
rthumb 8.674007223518364 -7.740471315964605
55
root 0.48027396980149706 17.815798341521973 18.798376557317663 -3.5354832728747 -1.153302165795927 -5.052987988815698
lfemur -17.44367299200718 -0.8049261196893671 -15.849438292878927
ltibia 54.702414607334006
lfoot -10.11579449497546 -4.042403375166923
ltoes -5.000304137895069
rfemur -4.087972185479785 4.732180144538123 27.80874513757902
rtibia 33.22413875597291
rfoot -8.345014991885666 -7.579787700296482
rtoes 7.414147796008381
lowerback 10.565759493404089 1.5539834904224858 3.726634039699613
upperback 0.3870087073141645 2.660696750989297 1.843594037015786
thorax -5.438846148434216 1.291401615964425 -0.8573504285127522
lowerneck -15.999615547536862 -3.115242942423778 -1.3798233210711484
upperneck 22.55183583667092 -3.9941903198672706 -0.4024379713827242
head 10.00863807251145 -1.9728424278817176 -0.49935272047132384
lclavicle -2.7026064544094676e-15 -2.3230481477056837e-15
lhumerus -28.193449797139273 1.3389255036786705 82.37267944176487
lradius 20.9284258557481
lwrist 6.509041207185392
lhand -27.236033966750057 23.059857696516914
lfingers 7.125020000000001
lthumb -0.19069437169511916 53.56460361520473
rclavicle -2.702606454403889e-15 -2.323048147701177e-15
rhumerus -33.57165053094838 -27.695196135871427 -72.9247176616359
rradius 27.087276157936028
rwrist 5.089518148683931
rhand -17.926128373827066 21.85754299979632
rfingers 7.125020000000001
rthumb 8.49697525222652 -7.987161397232745
56
root 0.4753077754871147 17.806957153292466 19.06916689719244 -3.698794499186369 -1.1343307489084018 -4.573667716286108
lfemur -17.26926283568225 -1.0049265263472942 -16.566151721564523
ltibia 52.35677238234115
lfoot -10.673660582692307 -4.430681468808834
ltoes -5.125303855722275
rfemur -4.317132656847825 4.741856888543346 27.214609494651285
rtibia 34.0869256037891
rfoot -8.037433939524224 -7.640111965079866
rtoes 8.131782918545778
lowerback 10.526309210198969 1.548677695201274 3.317398137910012
upperback 0.38851153810834216 2.572551726824847 1.744016136092861
thorax -5.362581421288825 1.260065884624829 -0.7343155103815473
lowerneck -15.944700300802152 -3.1489389561738865 -1.39308607519991
upperneck 22.61167142003768 -4.057998070112154 -0.31387485041662355
head 9.96487426119268 -1.9970478396411284 -0.4690231205474423
lclavicle -2.7026064544057694e-15 -2.3230481477031665e-15
lhumerus -28.97363594926382 2.2431555095264235 82.57402099404601
lradius 20.49847361701597
lwrist 6.07964687743274
lhand -27.57542132309879 22.93792480338111
lfingers 7.125020000000001
lthumb -0.6094561697580487 53.31618241352065
rclavicle -2.7026064544079305e-15 -2.3230481477041806e-15
rhumerus -33.37755535890371 -27.762368197299942 -72.61227722610278
rradius 26.725852727228048
rwrist 4.8770176875866085
rhand -17.926738754241352 21.888348639433534
rfingers 7.125020000000001
rthumb 8.45205337726805 -8.017401102702326
57
root 0.4874836157284071 17.801439175801278 20.13287635731709 -3.7215205973376047 -1.013986324122389 -4.12343385191189
lfemur -16.662072997417756 -1.2513592533660676 -17.212143479071738
ltibia 50.04498728602196
lfoot -11.473187897032284 -4.818446574183943
ltoes -6.542521919684807
rfemur -4.7968034142474885 4.641328131729039 26.617568897672893
rtibia 35.24692882211076
rfoot -7.741878087026944 -7.752824521506065
rtoes 7.442817906944164
lowerback 10.458987195830883 1.5077373560365963 2.9844432305714843
upperback 0.34580185538256025 2.464090318122858 1.624854272391435
thorax -5.374916757885409 1.2024090320208416 -0.7257123488458641
lowerneck -15.943543741452853 -3.1673185884738992 -1.373130886428535
upperneck 22.716653140275376 -4.100147359532936 -0.2543891818857759
head 10.066037813666917 -2.0087124939365886 -0.4703619334713285
lclavicle -2.702606454413104e-15 -2.323048147708488e-15
lhumerus -29.7099486846671 2.861834270936685 82.71055152127708
lradius 20.28418811351721
lwrist 6.71848582665192
lhand -27.766172100980473 23.060452058347437
lfingers 7.125020000000001
lthumb -0.9086566116112189 53.34641545838415
rclavicle -2.7026064543982173e-15 -2.3230481476973983e-15
rhumerus -32.904184357164524 -27.519247372416075 -72.36870007277145
rradius 26.463036233727845
rwrist 4.634076357817921
rhand -17.97293712730022 21.8847983018335
rfingers 7.125020000000001
rthumb 8.41344136586982 -8.022867468616306
58
root 0.5008062877048813 17.803632627999576 21.054716364861697 -3.613380271291684 -0.865737329550594 -3.840972480900413
lfemur -15.806945777021152 -1.4425711183018164 -17.700642090087076
ltibia 47.83652679748971
lfoot -12.00196801265108 -4.718841091576632
ltoes -8.448382034025162
rfemur -5.336578761481617 4.470550659015482 26.147101810618544
rtibia 36.355578100588865
rfoot -7.567718300319186 -7.902741969165485
rtoes 7.348895245753935
lowerback 10.28223650236281 1.433309424275076 2.7122978318095683
upperback 0.37061449562849613 2.3900846280280956 1.5648611601910272
thorax -5.334419378032374 1.1688027513088395 -0.6352286209760725
lowerneck -15.891985113697848 -3.184660226066889 -1.4056722956237566
upperneck 22.88440399886012 -4.156719556742307 -0.18882549947745142
head 10.088532869312846 -2.028668694076847 -0.44003187674608285
lclavicle -2.7026064544009743e-15 -2.3230481476999617e-15
lhumerus -30.497397049556856 3.189938529235747 82.81643955998724
lradius 20.197926068337686
lwrist 7.229638997090364
lhand -27.88176056679303 23.349973670421512
lfingers 7.125020000000001
lthumb -1.1264607664700275 53.5555659993917
rclavicle -2.7026064543952125e-15 -2.323048147695304e-15
rhumerus -32.31451390628211 -27.074806110298226 -72.3283027873597
rradius 26.370758981369196
rwrist 5.079295739196284
rhand -17.94184204185733 22.017427733624952
rfingers 7.125020000000001
rthumb 8.474953877056537 -7.8573295537792225
59
root 0.5245441294956628 17.818270596403693 21.79031180480716 -3.394172054957281 -0.6919498274683109 -3.7132537410803286
lfemur -15.202041717508234 -1.6444360111041045 -18.097905765111975
ltibia 45.99360230042255
lfoot -12.454066382952206 -4.227644729596571
ltoes -8.565602581889205
rfemur -6.122767886747073 4.308986517545047 25.75294729582457
rtibia 37.110141432283385
rfoot -7.444204336600613 -8.007013489576506
rtoes 6.474048131784003
lowerback 10.195174785355952 1.350957681938784 2.5979362783364213
upperback 0.31981114209598205 2.243021871635484 1.5015281347571907
thorax -5.3884270183592315 1.0975066105606965 -0.6109646404844904
lowerneck -15.86322816083946 -3.1940795335385563 -1.4328855246494034
upperneck 23.0282123183151 -4.172037227558803 -0.1472320369124768
head 10.169222055621582 -2.033303422246835 -0.4265687094476392
lclavicle -2.7026064544037598e-15 -2.3230481477019532e-15
lhumerus -31.05167974371971 3.5562402962754858 82.96301856917995
lradius 20.232248507107517
lwrist 7.484431075350688
lhand -27.919667568456678 23.864968909402585
lfingers 7.125020000000001
lthumb -1.2953767860415928 53.928415152853795
rclavicle -2.7026064543935456e-15 -2.3230481476941403e-15
rhumerus -31.510645897112113 -26.308236609363416 -72.63383985206247
rradius 26.359226047018957
rwrist 5.509292440230523
rhand -17.95253120571161 22.090323361099035
rfingers 7.125020000000001
rthumb 8.474199290506334 -7.725706651553702
